<svg class="icon" viewBox="0 0 1024 1024" xmlns="http://www.w3.org/2000/svg" width="200" height="200"><defs><style/></defs><path d="M238.933 125.156c-40.39 0-73.147 32.745-73.147 73.147s32.756 73.137 73.147 73.137 73.148-32.746 73.148-73.148-32.757-73.136-73.148-73.136zm113.778 251.938c0-44.886-36.386-81.272-81.271-81.272h-65.013c-44.885 0-81.271 36.386-81.271 81.272V409.6H352.71v-32.506zM238.933 125.156c-40.39 0-73.147 32.745-73.147 73.147s32.756 73.137 73.147 73.137 73.148-32.746 73.148-73.148-32.757-73.136-73.148-73.136zm113.778 251.938c0-44.886-36.386-81.272-81.271-81.272h-65.013c-44.885 0-81.271 36.386-81.271 81.272V409.6H352.71v-32.506zM512 603.022c-40.391 0-73.148 32.745-73.148 73.148 0 40.391 32.746 73.148 73.148 73.148s73.148-32.746 73.148-73.148c0-40.403-32.757-73.148-73.148-73.148zM625.778 854.96c0-44.885-36.386-81.271-81.272-81.271h-65.012c-44.886 0-81.272 36.386-81.272 81.271v32.507h227.556V854.96zM512 603.022c-40.391 0-73.148 32.745-73.148 73.148 0 40.391 32.746 73.148 73.148 73.148s73.148-32.746 73.148-73.148c0-40.403-32.757-73.148-73.148-73.148zM625.778 854.96c0-44.885-36.386-81.271-81.272-81.271h-65.012c-44.886 0-81.272 36.386-81.272 81.271v32.507h227.556V854.96zm170.666-729.804c-40.39 0-73.147 32.745-73.147 73.147s32.756 73.137 73.147 73.137 73.148-32.746 73.148-73.148-32.756-73.136-73.148-73.136zm113.778 251.938c0-44.886-36.386-81.272-81.271-81.272h-65.013c-44.885 0-81.271 36.386-81.271 81.272V409.6h227.555v-32.506zM796.444 125.156c-40.39 0-73.147 32.745-73.147 73.147s32.756 73.137 73.147 73.137 73.148-32.746 73.148-73.148-32.756-73.136-73.148-73.136zm113.778 251.938c0-44.886-36.386-81.272-81.271-81.272h-65.013c-44.885 0-81.271 36.386-81.271 81.272V409.6h227.555v-32.506zM700.405 799.937c-7.26 0-14.393-3.458-18.796-9.898-7.1-10.365-4.45-24.53 5.927-31.63l1.764-1.207c10.342-7.122 24.519-4.54 31.653 5.792 7.145 10.33 4.551 24.508-5.791 31.653l-1.923 1.32a22.763 22.763 0 0 1-12.834 3.97zm-378.14-.921a22.629 22.629 0 0 1-12.835-3.982l-2.367-1.662c-10.171-7.384-12.413-21.617-5.017-31.79 7.395-10.17 21.64-12.412 31.79-5.005l1.32.91c10.376 7.1 13.027 21.265 5.927 31.63a22.814 22.814 0 0 1-18.819 9.899zm438.76-52.179a22.679 22.679 0 0 1-15.041-5.689c-9.42-8.317-10.32-22.698-2.002-32.119l1.058-1.183c8.362-9.353 23.006-10.456 32.38-2.128 9.376 8.363 10.468 22.437 2.128 31.824l-.568.625-.865.979a22.797 22.797 0 0 1-17.09 7.691zm-499.143-1.228a22.757 22.757 0 0 1-17.01-7.624l-1.626-1.854c-8.272-9.466-7.282-23.848 2.184-32.097 9.478-8.283 23.836-7.293 32.108 2.185l1.343 1.502c8.351 9.386 7.52 23.78-1.878 32.13a22.68 22.68 0 0 1-15.12 5.758zM807.3 680.8a22.65 22.65 0 0 1-10.695-2.674c-11.094-5.928-15.28-19.706-9.353-30.8l.967-1.843c5.848-11.139 19.604-15.405 30.732-9.569 11.127 5.837 15.405 19.604 9.568 30.72l-1.126 2.14c-4.096 7.657-11.97 12.026-20.093 12.026zm-591.337-1.411c-8.136 0-15.998-4.37-20.094-12.038l-1.183-2.253c-5.768-11.161-1.4-24.894 9.774-30.651 11.173-5.792 24.894-1.4 30.663 9.762l.899 1.695c5.927 11.093 1.729 24.883-9.353 30.8a22.636 22.636 0 0 1-10.706 2.685zm620.464-73.796c-1.775 0-3.573-.205-5.382-.649-12.208-2.958-19.717-15.258-16.76-27.477l.365-1.445c3.038-12.174 15.52-19.991 27.66-17.021 12.185 3.026 19.728 14.904 16.736 27.101 0 .012-.228.9-.228.922l-.284 1.183c-2.537 10.4-11.844 17.386-22.107 17.386zM187.2 604.068c-10.229 0-19.525-6.94-22.073-17.306l-.558-2.252c-2.958-12.22 4.54-24.52 16.76-27.478 12.23-3.003 24.519 4.54 27.477 16.748l.512 2.105c3.004 12.209-4.449 24.53-16.657 27.546a24.482 24.482 0 0 1-5.461.637zm659.387-78.45h-.17c-12.561-.09-22.688-10.354-22.585-22.926v-3.436c0-12.561 10.194-22.756 22.755-22.756s22.756 10.195 22.756 22.756v3.766c-.103 12.527-10.274 22.596-22.756 22.596zm-669.172-1.911c-12.561 0-22.756-9.842-22.756-22.414v-2.492c.137-12.482 10.297-22.517 22.756-22.517h.25c12.561.137 22.642 10.434 22.517 22.995v1.32c-.012 12.583-10.195 23.108-22.767 23.108zm454.337-312.82c-2.696 0-5.427-.49-8.09-1.503l-2.047-.773c-11.754-4.45-17.682-17.58-13.244-29.332 4.437-11.754 17.567-17.681 29.332-13.244l2.161.82c11.742 4.482 17.636 17.623 13.165 29.365-3.46 9.08-12.095 14.666-21.277 14.666zm-239.309-.08c-9.17 0-17.806-5.587-21.276-14.666-4.472-11.742 1.422-24.895 13.164-29.367l2.39-.898c11.81-4.29 24.871 1.763 29.183 13.573 4.301 11.8-1.763 24.872-13.573 29.173l-1.81.683a22.648 22.648 0 0 1-8.078 1.501zM553.53 191.34c-.91 0-1.82-.057-2.742-.17l-2.207-.25c-12.482-1.503-21.38-12.824-19.9-25.305 1.49-12.47 12.834-21.254 25.293-19.9l2.241.273c12.481 1.502 21.379 12.834 19.877 25.316-1.388 11.56-11.207 20.036-22.562 20.036zm-82.899-.011c-11.366 0-21.185-8.488-22.562-20.06-1.49-12.48 7.419-23.802 19.9-25.303l2.207-.25c12.516-1.537 23.814 7.395 25.316 19.865 1.502 12.481-7.396 23.813-19.877 25.315l-2.242.273a22.55 22.55 0 0 1-2.742.16z" fill="#fff"/></svg>