<svg width="48" height="48" xmlns="http://www.w3.org/2000/svg"><g fill="none" fill-rule="evenodd"><circle fill="#4CA7FB" cx="24" cy="24" r="24"/><g fill="#FFF"><path d="M27.003 25.333A5.475 5.475 0 0 0 26 28.5c0 .9.216 1.75.6 2.5h-2.613v-.013H15c0-1.835.303-3.098 1.78-3.658 1.464-.572 3.37-1.262 4.468-2.213 1.225-1.067.922-1.067.606-1.458-.429-.494-.492-1.757-.492-1.757-1.288-.377-.985-2.525-.67-2.525.304 0 .304-.13.127-1.263-.24-1.458-.126-2.213.555-3.098C22.044 14.13 24 14 24 14s1.957.13 2.626 1.015c.669.885.795 1.64.555 3.098-.19 1.133-.19 1.263.126 1.263.303 0 .556 2.148-.669 2.525 0 0-.063 1.263-.492 1.77-.303.378-.606.378.606 1.458.08.07.163.137.25.204zm1.518-1.457a.409.409 0 0 0-.114-.156c-.69-.597-.56-1.02-.247-1.803.312-.783.312-1.318.247-1.865-.052-.61-.625-.908-.625-.908.117-.124.182-.298.313-.423.507-.659 2.018-.721 2.018-.721s1.51.062 2.018.721c.573.61.638 1.157.442 2.176-.182.846-.182.908.065.908.18 0 .33.793.042 1.322a5.52 5.52 0 0 0-4.159.749zm8.435 5.324c.032.25.044.517.044.8h-.207c.073-.26.128-.526.163-.8zM14.02 30H11c0-1.268.247-2.226 1.393-2.587 1.133-.36 2.591-.907 3.411-1.566.95-.784.69-.784.443-1.02-.313-.36-.378-1.268-.378-1.268-.95-.237-.755-1.754-.507-1.754.247 0 .247-.062.065-.908-.196-1.02-.13-1.566.442-2.176.508-.659 2.018-.721 2.018-.721s1.51.062 2.018.721c.13.125.196.299.313.423 0 0-.573.298-.625.908-.065.547-.065 1.082.247 1.865.313.784.443 1.206-.247 1.803-.378.299-.13 1.63-.13 1.63s-1.771.907-3.659 1.504C13.838 27.476 14.021 30 14.021 30z"/><path d="M32.08 24a5 5 0 1 0-.16 10 5 5 0 0 0 .16-10zm3.139 3.586l-3.533 3.531c-.102.103-.289.15-.444.143-.155.006-.343-.04-.446-.143l-1.549-1.551a.497.497 0 0 1 .7-.7l1.298 1.292 3.273-3.275a.497.497 0 0 1 .7.7v.003z" fill-rule="nonzero"/></g></g></svg>