<svg width="48" height="48" xmlns="http://www.w3.org/2000/svg"><g fill="none" fill-rule="evenodd"><circle fill="#FBC24C" cx="24" cy="24" r="24"/><g fill="#FFF"><path d="M23.987 32.987H15c0-1.835.303-3.098 1.78-3.658 1.464-.572 3.37-1.262 4.468-2.213 1.225-1.067.922-1.067.606-1.458-.429-.494-.492-1.757-.492-1.757-1.288-.377-.985-2.525-.67-2.525.304 0 .304-.13.127-1.263-.24-1.458-.126-2.213.555-3.098C22.044 16.13 24 16 24 16s1.957.13 2.626 1.015c.669.885.795 1.64.555 3.098-.19 1.133-.19 1.263.126 1.263.303 0 .556 2.148-.669 2.525 0 0-.063 1.263-.492 1.77-.303.378-.606.378.606 1.458 1.098.95 3.004 1.706 4.468 2.213C32.684 29.85 33 31.178 33 33h-9.013v-.013z"/><path d="M33.966 32H37c0-1.268-.247-2.226-1.393-2.587-1.133-.36-2.591-.907-3.411-1.566-.95-.784-.69-.784-.443-1.02.313-.36.378-1.268.378-1.268.95-.237.755-1.754.507-1.754-.247 0-.247-.062-.065-.908.196-1.02.13-1.566-.442-2.176-.508-.659-2.018-.721-2.018-.721s-1.51.062-2.018.721c-.13.125-.196.299-.313.423 0 0 .573.298.625.908.065.547.065 1.082-.247 1.865-.313.784-.443 1.206.247 1.803.378.299.13 1.63.13 1.63s1.771.907 3.659 1.504c1.966.622 1.77 3.146 1.77 3.146zm-19.945 0H11c0-1.268.247-2.226 1.393-2.587 1.133-.36 2.591-.907 3.411-1.566.95-.784.69-.784.443-1.02-.313-.36-.378-1.268-.378-1.268-.95-.237-.755-1.754-.507-1.754.247 0 .247-.062.065-.908-.196-1.02-.13-1.566.442-2.176.508-.659 2.018-.721 2.018-.721s1.51.062 2.018.721c.13.125.196.299.313.423 0 0-.573.298-.625.908-.065.547-.065 1.082.247 1.865.313.784.443 1.206-.247 1.803-.378.299-.13 1.63-.13 1.63s-1.771.907-3.659 1.504C13.838 29.476 14.021 32 14.021 32z" fill-rule="nonzero"/></g></g></svg>