<svg width="48" height="48" xmlns="http://www.w3.org/2000/svg"><g fill="none" fill-rule="evenodd"><circle fill="#AD86E3" cx="24" cy="24" r="24"/><g fill="#FFF" fill-rule="nonzero"><path d="M25.46 31.922a.735.735 0 0 1-.33.078h-6.26c-.432 0-.783-.376-.783-.842 0-.465.35-.842.783-.842h2.347v-1.369h-6.653c-.863 0-1.564-.758-1.564-1.691v-1.993H24.659a6.044 6.044 0 0 0-.585 3.684h-1.291v1.369h1.68c.247.589.585 1.13.996 1.606zM31 22.083A6.04 6.04 0 0 0 30 22a5.978 5.978 0 0 0-4.056 1.579H13v-7.886c0-.933.701-1.693 1.564-1.693h14.872c.863 0 1.564.76 1.564 1.693v6.39z"/><path d="M30.08 23a5 5 0 1 0-.16 10 5 5 0 0 0 .16-10zm3.139 3.586l-3.533 3.531c-.102.103-.289.15-.444.143-.155.006-.343-.04-.446-.143l-1.549-1.551a.497.497 0 0 1 .7-.7l1.298 1.292 3.273-3.275a.497.497 0 0 1 .7.7v.003z"/></g></g></svg>