<svg width="48" height="48" xmlns="http://www.w3.org/2000/svg"><g fill="none" fill-rule="evenodd"><circle fill="#64AB4B" cx="24" cy="24" r="24"/><path d="M16.565 27.263H15v1.993c0 .933.701 1.691 1.564 1.691h6.653v1.369H20.87c-.432 0-.783.377-.783.842 0 .466.35.842.783.842h6.26c.432 0 .783-.376.783-.842 0-.465-.35-.842-.783-.842h-2.347v-1.369h6.653c.863 0 1.564-.758 1.564-1.691v-1.993H16.565zM31.435 16h-14.87C15.7 16 15 16.76 15 17.693v7.886h18v-7.886C33 16.76 32.299 16 31.436 16z" fill="#FFF" fill-rule="nonzero"/></g></svg>